<?xml version="1.0" encoding="UTF-8"?>
<svg xmlns="http://www.w3.org/2000/svg" xmlns:xlink="http://www.w3.org/1999/xlink" width="24px" height="24px" viewBox="0 0 24 24" version="1.1">
<g id="surface1">
<path style=" stroke:none;fill-rule:nonzero;fill:rgb(0%,0%,0%);fill-opacity:1;" d="M 12 0.375 C 5.578125 0.375 0.375 5.578125 0.375 12 C 0.375 18.421875 5.578125 23.625 12 23.625 C 18.421875 23.625 23.625 18.421875 23.625 12 C 23.625 5.578125 18.421875 0.375 12 0.375 Z M 17.710938 8.339844 L 15.800781 17.332031 C 15.660156 17.96875 15.28125 18.121094 14.75 17.820312 L 11.84375 15.679688 L 10.445312 17.03125 C 10.289062 17.183594 10.15625 17.316406 9.859375 17.316406 L 10.0625 14.359375 L 15.449219 9.492188 C 15.683594 9.285156 15.398438 9.167969 15.089844 9.375 L 8.433594 13.566406 L 5.5625 12.667969 C 4.941406 12.472656 4.925781 12.046875 5.695312 11.746094 L 16.902344 7.425781 C 17.421875 7.238281 17.878906 7.550781 17.710938 8.339844 Z M 17.710938 8.339844 "/>
</g>
</svg>
